<svg xmlns="http://www.w3.org/2000/svg" width="19.637" height="24.579" viewBox="0 0 19.637 24.579">
  <g id="Icon_ionic-ios-notifications-outline" data-name="Icon ionic-ios-notifications-outline" transform="translate(-6.775 -3.93)">
    <path id="Path_166" data-name="Path 166" d="M19.654,28.336a.8.8,0,0,0-.78.627,1.539,1.539,0,0,1-.307.67,1.161,1.161,0,0,1-.989.362,1.18,1.18,0,0,1-.989-.362,1.539,1.539,0,0,1-.307-.67.8.8,0,0,0-.78-.627h0a.8.8,0,0,0-.78.977,2.745,2.745,0,0,0,2.857,2.279,2.74,2.74,0,0,0,2.857-2.279.8.8,0,0,0-.78-.977Z" transform="translate(-1.001 -3.083)"/>
    <path id="Path_167" data-name="Path 167" d="M26.166,22.133c-.946-1.247-2.807-1.978-2.807-7.562,0-5.732-2.531-8.035-4.89-8.588-.221-.055-.381-.129-.381-.362V5.442A1.507,1.507,0,0,0,16.613,3.93h-.037A1.507,1.507,0,0,0,15.1,5.442V5.62c0,.227-.16.307-.381.362-2.365.559-4.89,2.857-4.89,8.588,0,5.584-1.861,6.309-2.807,7.562A1.219,1.219,0,0,0,8,24.086H25.207A1.22,1.22,0,0,0,26.166,22.133Zm-2.4.356H9.444a.269.269,0,0,1-.2-.448,7.442,7.442,0,0,0,1.29-2.052,13.921,13.921,0,0,0,.878-5.418,9.421,9.421,0,0,1,1.284-5.332,3.942,3.942,0,0,1,2.377-1.7A2.153,2.153,0,0,0,16.214,6.9a.486.486,0,0,1,.731-.012,2.226,2.226,0,0,0,1.155.657,3.942,3.942,0,0,1,2.377,1.7,9.421,9.421,0,0,1,1.284,5.332,13.922,13.922,0,0,0,.878,5.418,7.527,7.527,0,0,0,1.321,2.083A.254.254,0,0,1,23.77,22.489Z"/>
  </g>
</svg>
