<svg xmlns="http://www.w3.org/2000/svg" width="33.765" height="36" viewBox="0 0 33.765 36">
  <g id="Group_1654" data-name="Group 1654" transform="translate(-2332.316 -255.365)">
    <path id="Path_313" data-name="Path 313" d="M2360.551,255.365h-22.7a5.547,5.547,0,0,0-5.531,5.531v24.938a5.547,5.547,0,0,0,5.531,5.531h22.7a5.546,5.546,0,0,0,5.53-5.531V260.9A5.546,5.546,0,0,0,2360.551,255.365Zm-1.205,28.111a1.141,1.141,0,0,1-1.137,1.137h-18.02a1.14,1.14,0,0,1-1.137-1.137h0a1.14,1.14,0,0,1,1.137-1.137h18.02a1.14,1.14,0,0,1,1.137,1.137Zm-1.137-5.615h-18.02a1.137,1.137,0,0,1,0-2.274h18.02a1.137,1.137,0,0,1,0,2.274Zm1.137-7.888a1.141,1.141,0,0,1-1.137,1.137h-18.02a1.14,1.14,0,0,1-1.137-1.137h0a1.139,1.139,0,0,1,1.137-1.137h18.02a1.14,1.14,0,0,1,1.137,1.137Zm-1.137-5.615h-18.02a1.137,1.137,0,0,1,0-2.274h18.02a1.137,1.137,0,0,1,0,2.274Z" fill="#ea8806"/>
  </g>
</svg>
